<mxfile host="app.diagrams.net" agent="Mozilla/5.0 (Macintosh; Intel Mac OS X 10_15_7) AppleWebKit/605.1.15 (KHTML, like Gecko) Version/18.2 Safari/605.1.15" version="27.1.6">
  <diagram name="Page-1" id="vN0A4slhXSWoSuJ6CYZg">
    <mxGraphModel dx="2025" dy="1989" grid="1" gridSize="10" guides="1" tooltips="1" connect="1" arrows="1" fold="1" page="1" pageScale="1" pageWidth="827" pageHeight="1169" math="0" shadow="0">
      <root>
        <mxCell id="0" />
        <mxCell id="1" parent="0" />
        <mxCell id="XRD_ZA1efbDo6FkzEbn4-156" value="" style="rounded=0;whiteSpace=wrap;html=1;fillColor=#ffe6cc;strokeColor=#d79b00;strokeWidth=3;" parent="1" vertex="1">
          <mxGeometry x="217.51" width="560" height="630" as="geometry" />
        </mxCell>
        <mxCell id="ZcilD9-sT0V4X173nd3I-24" value="" style="endArrow=none;html=1;rounded=0;exitX=0.7;exitY=0.985;exitDx=0;exitDy=0;exitPerimeter=0;fillColor=#e1d5e7;strokeColor=#9673a6;strokeWidth=5;" parent="1" edge="1">
          <mxGeometry width="50" height="50" relative="1" as="geometry">
            <mxPoint x="150" y="199.99999999999994" as="sourcePoint" />
            <mxPoint x="149" y="511.95000000000005" as="targetPoint" />
          </mxGeometry>
        </mxCell>
        <mxCell id="ZcilD9-sT0V4X173nd3I-26" value="" style="endArrow=none;html=1;rounded=0;exitX=0.7;exitY=0.985;exitDx=0;exitDy=0;exitPerimeter=0;fillColor=#dae8fc;strokeColor=#6c8ebf;strokeWidth=5;" parent="1" edge="1">
          <mxGeometry width="50" height="50" relative="1" as="geometry">
            <mxPoint x="131" y="200" as="sourcePoint" />
            <mxPoint x="130" y="280" as="targetPoint" />
          </mxGeometry>
        </mxCell>
        <mxCell id="ZcilD9-sT0V4X173nd3I-27" value="" style="endArrow=none;html=1;rounded=0;fillColor=#dae8fc;strokeColor=#6c8ebf;strokeWidth=5;entryX=0;entryY=0.5;entryDx=0;entryDy=0;" parent="1" target="XRD_ZA1efbDo6FkzEbn4-62" edge="1">
          <mxGeometry width="50" height="50" relative="1" as="geometry">
            <mxPoint x="250" y="190" as="sourcePoint" />
            <mxPoint x="200" y="480" as="targetPoint" />
          </mxGeometry>
        </mxCell>
        <mxCell id="ZcilD9-sT0V4X173nd3I-28" value="" style="endArrow=none;html=1;rounded=0;exitX=0.7;exitY=0.985;exitDx=0;exitDy=0;exitPerimeter=0;fillColor=#d5e8d4;strokeColor=#82b366;strokeWidth=5;" parent="1" edge="1">
          <mxGeometry width="50" height="50" relative="1" as="geometry">
            <mxPoint x="110.5" y="193.5" as="sourcePoint" />
            <mxPoint x="111" y="370" as="targetPoint" />
          </mxGeometry>
        </mxCell>
        <mxCell id="ZcilD9-sT0V4X173nd3I-29" value="" style="endArrow=none;html=1;rounded=0;fillColor=#d5e8d4;strokeColor=#82b366;strokeWidth=5;entryX=0;entryY=0.5;entryDx=0;entryDy=0;jumpStyle=arc;" parent="1" target="XRD_ZA1efbDo6FkzEbn4-69" edge="1">
          <mxGeometry width="50" height="50" relative="1" as="geometry">
            <mxPoint x="110" y="371" as="sourcePoint" />
            <mxPoint x="339" y="367.13" as="targetPoint" />
          </mxGeometry>
        </mxCell>
        <mxCell id="ZcilD9-sT0V4X173nd3I-30" value="" style="endArrow=none;html=1;rounded=0;exitX=0.7;exitY=0.985;exitDx=0;exitDy=0;exitPerimeter=0;fillColor=#ffe6cc;strokeColor=#d79b00;strokeWidth=5;" parent="1" edge="1">
          <mxGeometry width="50" height="50" relative="1" as="geometry">
            <mxPoint x="91" y="200" as="sourcePoint" />
            <mxPoint x="90" y="350" as="targetPoint" />
          </mxGeometry>
        </mxCell>
        <mxCell id="ZcilD9-sT0V4X173nd3I-31" value="" style="endArrow=none;html=1;rounded=0;fillColor=#ffe6cc;strokeColor=#d79b00;strokeWidth=5;entryX=-0.007;entryY=0.864;entryDx=0;entryDy=0;entryPerimeter=0;jumpStyle=arc;" parent="1" edge="1">
          <mxGeometry width="50" height="50" relative="1" as="geometry">
            <mxPoint x="90" y="348" as="sourcePoint" />
            <mxPoint x="359.64999999999986" y="347.00800000000004" as="targetPoint" />
          </mxGeometry>
        </mxCell>
        <mxCell id="ZcilD9-sT0V4X173nd3I-32" value="" style="endArrow=none;html=1;rounded=0;exitX=0.7;exitY=0.985;exitDx=0;exitDy=0;exitPerimeter=0;fillColor=#fff2cc;strokeColor=#d6b656;strokeWidth=5;" parent="1" edge="1">
          <mxGeometry width="50" height="50" relative="1" as="geometry">
            <mxPoint x="69" y="200" as="sourcePoint" />
            <mxPoint x="68.5" y="320" as="targetPoint" />
          </mxGeometry>
        </mxCell>
        <mxCell id="ZcilD9-sT0V4X173nd3I-33" value="" style="endArrow=none;html=1;rounded=0;exitX=0.7;exitY=0.985;exitDx=0;exitDy=0;exitPerimeter=0;fillColor=#f5f5f5;strokeColor=#CCCCCC;strokeWidth=5;" parent="1" edge="1">
          <mxGeometry width="50" height="50" relative="1" as="geometry">
            <mxPoint x="50.5" y="201" as="sourcePoint" />
            <mxPoint x="49.5" y="601" as="targetPoint" />
          </mxGeometry>
        </mxCell>
        <mxCell id="ZcilD9-sT0V4X173nd3I-34" value="" style="endArrow=none;html=1;rounded=0;strokeWidth=5;strokeColor=#CCCCCC;jumpStyle=arc;" parent="1" edge="1">
          <mxGeometry width="50" height="50" relative="1" as="geometry">
            <mxPoint x="50" y="600" as="sourcePoint" />
            <mxPoint x="673" y="600" as="targetPoint" />
          </mxGeometry>
        </mxCell>
        <mxCell id="ZcilD9-sT0V4X173nd3I-35" value="" style="ellipse;whiteSpace=wrap;html=1;aspect=fixed;movable=0;resizable=0;rotatable=0;deletable=0;editable=0;locked=1;connectable=0;" parent="1" vertex="1">
          <mxGeometry x="50" y="87.5" width="95" height="95" as="geometry" />
        </mxCell>
        <mxCell id="ZcilD9-sT0V4X173nd3I-36" value="" style="whiteSpace=wrap;html=1;aspect=fixed;fillColor=#f5f5f5;strokeColor=#666666;fontColor=#333333;strokeWidth=2;" parent="1" vertex="1">
          <mxGeometry x="5.5" y="47.5" width="152.5" height="152.5" as="geometry" />
        </mxCell>
        <mxCell id="ZcilD9-sT0V4X173nd3I-17" value="" style="ellipse;whiteSpace=wrap;html=1;aspect=fixed;strokeWidth=2;movable=0;resizable=0;rotatable=0;deletable=0;editable=0;locked=1;connectable=0;" parent="1" vertex="1">
          <mxGeometry x="36.88" y="60" width="93.75" height="93.75" as="geometry" />
        </mxCell>
        <mxCell id="ZcilD9-sT0V4X173nd3I-37" value="" style="endArrow=none;html=1;rounded=0;exitX=0.7;exitY=0.985;exitDx=0;exitDy=0;exitPerimeter=0;fillColor=#f8cecc;strokeColor=#b85450;strokeWidth=5;" parent="1" edge="1">
          <mxGeometry width="50" height="50" relative="1" as="geometry">
            <mxPoint x="30" y="200" as="sourcePoint" />
            <mxPoint x="29" y="550" as="targetPoint" />
          </mxGeometry>
        </mxCell>
        <mxCell id="ZcilD9-sT0V4X173nd3I-41" value="" style="endArrow=none;html=1;rounded=0;exitX=0.7;exitY=0.985;exitDx=0;exitDy=0;exitPerimeter=0;fillColor=#f5f5f5;strokeColor=#666666;strokeWidth=5;" parent="1" edge="1">
          <mxGeometry width="50" height="50" relative="1" as="geometry">
            <mxPoint x="12.5" y="200" as="sourcePoint" />
            <mxPoint x="12" y="580" as="targetPoint" />
          </mxGeometry>
        </mxCell>
        <mxCell id="XRD_ZA1efbDo6FkzEbn4-1" value="" style="rounded=0;whiteSpace=wrap;html=1;rotation=90;movable=0;resizable=0;rotatable=0;deletable=0;editable=0;locked=1;connectable=0;strokeWidth=2;" parent="1" vertex="1">
          <mxGeometry x="333.13" y="204.38" width="328.75" height="275" as="geometry" />
        </mxCell>
        <mxCell id="XRD_ZA1efbDo6FkzEbn4-3" value="" style="whiteSpace=wrap;html=1;aspect=fixed;" parent="1" vertex="1">
          <mxGeometry x="360" y="178" width="50" height="50" as="geometry" />
        </mxCell>
        <mxCell id="XRD_ZA1efbDo6FkzEbn4-4" value="" style="whiteSpace=wrap;html=1;aspect=fixed;" parent="1" vertex="1">
          <mxGeometry x="360" y="229" width="50" height="50" as="geometry" />
        </mxCell>
        <mxCell id="XRD_ZA1efbDo6FkzEbn4-5" value="" style="whiteSpace=wrap;html=1;aspect=fixed;" parent="1" vertex="1">
          <mxGeometry x="360" y="280" width="50" height="50" as="geometry" />
        </mxCell>
        <mxCell id="XRD_ZA1efbDo6FkzEbn4-6" value="" style="whiteSpace=wrap;html=1;aspect=fixed;" parent="1" vertex="1">
          <mxGeometry x="360" y="330" width="50" height="50" as="geometry" />
        </mxCell>
        <mxCell id="XRD_ZA1efbDo6FkzEbn4-7" value="" style="whiteSpace=wrap;html=1;aspect=fixed;" parent="1" vertex="1">
          <mxGeometry x="360" y="380" width="50" height="50" as="geometry" />
        </mxCell>
        <mxCell id="XRD_ZA1efbDo6FkzEbn4-8" value="" style="whiteSpace=wrap;html=1;aspect=fixed;" parent="1" vertex="1">
          <mxGeometry x="360" y="430" width="50" height="50" as="geometry" />
        </mxCell>
        <mxCell id="XRD_ZA1efbDo6FkzEbn4-11" value="" style="endArrow=none;html=1;rounded=0;exitX=0;exitY=0.5;exitDx=0;exitDy=0;entryX=1;entryY=0.5;entryDx=0;entryDy=0;" parent="1" edge="1">
          <mxGeometry width="50" height="50" relative="1" as="geometry">
            <mxPoint x="360" y="205" as="sourcePoint" />
            <mxPoint x="410" y="205" as="targetPoint" />
            <Array as="points">
              <mxPoint x="410" y="205" />
            </Array>
          </mxGeometry>
        </mxCell>
        <mxCell id="XRD_ZA1efbDo6FkzEbn4-12" value="" style="endArrow=none;html=1;rounded=0;exitX=0;exitY=0.5;exitDx=0;exitDy=0;entryX=1;entryY=0.5;entryDx=0;entryDy=0;strokeWidth=2;" parent="1" edge="1">
          <mxGeometry width="50" height="50" relative="1" as="geometry">
            <mxPoint x="360" y="253.5" as="sourcePoint" />
            <mxPoint x="410" y="253.5" as="targetPoint" />
            <Array as="points">
              <mxPoint x="410" y="253.5" />
            </Array>
          </mxGeometry>
        </mxCell>
        <mxCell id="XRD_ZA1efbDo6FkzEbn4-13" value="" style="endArrow=none;html=1;rounded=0;exitX=0;exitY=0.5;exitDx=0;exitDy=0;entryX=1;entryY=0.5;entryDx=0;entryDy=0;strokeWidth=2;" parent="1" edge="1">
          <mxGeometry width="50" height="50" relative="1" as="geometry">
            <mxPoint x="360" y="304.5" as="sourcePoint" />
            <mxPoint x="410" y="304.5" as="targetPoint" />
            <Array as="points">
              <mxPoint x="410" y="304.5" />
            </Array>
          </mxGeometry>
        </mxCell>
        <mxCell id="XRD_ZA1efbDo6FkzEbn4-14" value="" style="endArrow=none;html=1;rounded=0;exitX=0;exitY=0.5;exitDx=0;exitDy=0;entryX=1;entryY=0.5;entryDx=0;entryDy=0;" parent="1" edge="1">
          <mxGeometry width="50" height="50" relative="1" as="geometry">
            <mxPoint x="360" y="354.5" as="sourcePoint" />
            <mxPoint x="410" y="354.5" as="targetPoint" />
            <Array as="points">
              <mxPoint x="410" y="354.5" />
            </Array>
          </mxGeometry>
        </mxCell>
        <mxCell id="XRD_ZA1efbDo6FkzEbn4-15" value="" style="endArrow=none;html=1;rounded=0;exitX=0;exitY=0.5;exitDx=0;exitDy=0;entryX=1;entryY=0.5;entryDx=0;entryDy=0;" parent="1" edge="1">
          <mxGeometry width="50" height="50" relative="1" as="geometry">
            <mxPoint x="360" y="404.5" as="sourcePoint" />
            <mxPoint x="410" y="404.5" as="targetPoint" />
            <Array as="points">
              <mxPoint x="410" y="404.5" />
            </Array>
          </mxGeometry>
        </mxCell>
        <mxCell id="XRD_ZA1efbDo6FkzEbn4-16" value="" style="endArrow=none;html=1;rounded=0;exitX=0;exitY=0.5;exitDx=0;exitDy=0;entryX=1;entryY=0.5;entryDx=0;entryDy=0;" parent="1" edge="1">
          <mxGeometry width="50" height="50" relative="1" as="geometry">
            <mxPoint x="360" y="454.5" as="sourcePoint" />
            <mxPoint x="410" y="454.5" as="targetPoint" />
            <Array as="points">
              <mxPoint x="410" y="454.5" />
            </Array>
          </mxGeometry>
        </mxCell>
        <mxCell id="XRD_ZA1efbDo6FkzEbn4-19" value="" style="endArrow=none;html=1;rounded=0;exitX=0;exitY=0.5;exitDx=0;exitDy=0;entryX=1;entryY=0.5;entryDx=0;entryDy=0;" parent="1" edge="1">
          <mxGeometry width="50" height="50" relative="1" as="geometry">
            <mxPoint x="360" y="504.5" as="sourcePoint" />
            <mxPoint x="410" y="504.5" as="targetPoint" />
            <Array as="points">
              <mxPoint x="410" y="504.5" />
            </Array>
          </mxGeometry>
        </mxCell>
        <mxCell id="XRD_ZA1efbDo6FkzEbn4-35" value="" style="whiteSpace=wrap;html=1;aspect=fixed;" parent="1" vertex="1">
          <mxGeometry x="584" y="178" width="50" height="50" as="geometry" />
        </mxCell>
        <mxCell id="XRD_ZA1efbDo6FkzEbn4-36" value="" style="whiteSpace=wrap;html=1;aspect=fixed;" parent="1" vertex="1">
          <mxGeometry x="584" y="228" width="50" height="50" as="geometry" />
        </mxCell>
        <mxCell id="XRD_ZA1efbDo6FkzEbn4-37" value="" style="whiteSpace=wrap;html=1;aspect=fixed;" parent="1" vertex="1">
          <mxGeometry x="584" y="278" width="50" height="50" as="geometry" />
        </mxCell>
        <mxCell id="XRD_ZA1efbDo6FkzEbn4-38" value="" style="whiteSpace=wrap;html=1;aspect=fixed;" parent="1" vertex="1">
          <mxGeometry x="584" y="328" width="50" height="50" as="geometry" />
        </mxCell>
        <mxCell id="XRD_ZA1efbDo6FkzEbn4-39" value="" style="whiteSpace=wrap;html=1;aspect=fixed;" parent="1" vertex="1">
          <mxGeometry x="584" y="378" width="50" height="50" as="geometry" />
        </mxCell>
        <mxCell id="XRD_ZA1efbDo6FkzEbn4-40" value="" style="whiteSpace=wrap;html=1;aspect=fixed;" parent="1" vertex="1">
          <mxGeometry x="584" y="428" width="50" height="50" as="geometry" />
        </mxCell>
        <mxCell id="XRD_ZA1efbDo6FkzEbn4-42" value="" style="endArrow=none;html=1;rounded=0;exitX=0;exitY=0.5;exitDx=0;exitDy=0;entryX=1;entryY=0.5;entryDx=0;entryDy=0;" parent="1" edge="1">
          <mxGeometry width="50" height="50" relative="1" as="geometry">
            <mxPoint x="584" y="202.5" as="sourcePoint" />
            <mxPoint x="634" y="202.5" as="targetPoint" />
            <Array as="points">
              <mxPoint x="634" y="202.5" />
            </Array>
          </mxGeometry>
        </mxCell>
        <mxCell id="XRD_ZA1efbDo6FkzEbn4-43" value="" style="endArrow=none;html=1;rounded=0;exitX=0;exitY=0.5;exitDx=0;exitDy=0;entryX=1;entryY=0.5;entryDx=0;entryDy=0;" parent="1" edge="1">
          <mxGeometry width="50" height="50" relative="1" as="geometry">
            <mxPoint x="584" y="253.5" as="sourcePoint" />
            <mxPoint x="634" y="253.5" as="targetPoint" />
            <Array as="points">
              <mxPoint x="634" y="253.5" />
            </Array>
          </mxGeometry>
        </mxCell>
        <mxCell id="XRD_ZA1efbDo6FkzEbn4-44" value="" style="endArrow=none;html=1;rounded=0;exitX=0;exitY=0.5;exitDx=0;exitDy=0;entryX=1;entryY=0.5;entryDx=0;entryDy=0;" parent="1" edge="1">
          <mxGeometry width="50" height="50" relative="1" as="geometry">
            <mxPoint x="584" y="304.5" as="sourcePoint" />
            <mxPoint x="634" y="304.5" as="targetPoint" />
            <Array as="points">
              <mxPoint x="634" y="304.5" />
            </Array>
          </mxGeometry>
        </mxCell>
        <mxCell id="XRD_ZA1efbDo6FkzEbn4-45" value="" style="endArrow=none;html=1;rounded=0;exitX=0;exitY=0.5;exitDx=0;exitDy=0;entryX=1;entryY=0.5;entryDx=0;entryDy=0;" parent="1" edge="1">
          <mxGeometry width="50" height="50" relative="1" as="geometry">
            <mxPoint x="584" y="354.5" as="sourcePoint" />
            <mxPoint x="634" y="354.5" as="targetPoint" />
            <Array as="points">
              <mxPoint x="634" y="354.5" />
            </Array>
          </mxGeometry>
        </mxCell>
        <mxCell id="XRD_ZA1efbDo6FkzEbn4-46" value="" style="endArrow=none;html=1;rounded=0;exitX=0;exitY=0.5;exitDx=0;exitDy=0;entryX=1;entryY=0.5;entryDx=0;entryDy=0;" parent="1" edge="1">
          <mxGeometry width="50" height="50" relative="1" as="geometry">
            <mxPoint x="584" y="404.5" as="sourcePoint" />
            <mxPoint x="634" y="404.5" as="targetPoint" />
            <Array as="points">
              <mxPoint x="634" y="404.5" />
            </Array>
          </mxGeometry>
        </mxCell>
        <mxCell id="XRD_ZA1efbDo6FkzEbn4-47" value="" style="endArrow=none;html=1;rounded=0;exitX=0;exitY=0.5;exitDx=0;exitDy=0;entryX=1;entryY=0.5;entryDx=0;entryDy=0;" parent="1" edge="1">
          <mxGeometry width="50" height="50" relative="1" as="geometry">
            <mxPoint x="584" y="452.5" as="sourcePoint" />
            <mxPoint x="634" y="452.5" as="targetPoint" />
            <Array as="points">
              <mxPoint x="634" y="452.5" />
            </Array>
          </mxGeometry>
        </mxCell>
        <mxCell id="XRD_ZA1efbDo6FkzEbn4-49" value="" style="rounded=0;whiteSpace=wrap;html=1;fillColor=#e1d5e7;strokeColor=#9673a6;strokeWidth=2;" parent="1" vertex="1">
          <mxGeometry x="54" y="660" width="120" height="60" as="geometry" />
        </mxCell>
        <mxCell id="XRD_ZA1efbDo6FkzEbn4-48" value="" style="endArrow=none;html=1;rounded=0;exitX=0;exitY=0.5;exitDx=0;exitDy=0;entryX=1;entryY=0.5;entryDx=0;entryDy=0;" parent="1" edge="1">
          <mxGeometry width="50" height="50" relative="1" as="geometry">
            <mxPoint x="584" y="504.5" as="sourcePoint" />
            <mxPoint x="634" y="504.5" as="targetPoint" />
            <Array as="points">
              <mxPoint x="634" y="504.5" />
            </Array>
          </mxGeometry>
        </mxCell>
        <mxCell id="XRD_ZA1efbDo6FkzEbn4-53" value="" style="shape=cross;whiteSpace=wrap;html=1;size=0;strokeWidth=2;" parent="1" vertex="1">
          <mxGeometry x="130.63" y="669.5" width="30" height="30" as="geometry" />
        </mxCell>
        <mxCell id="XRD_ZA1efbDo6FkzEbn4-57" value="" style="rounded=0;whiteSpace=wrap;html=1;" parent="1" vertex="1">
          <mxGeometry x="64.5" y="684" width="32.5" height="1" as="geometry" />
        </mxCell>
        <mxCell id="XRD_ZA1efbDo6FkzEbn4-60" value="" style="endArrow=none;dashed=1;html=1;rounded=0;fillColor=#dae8fc;strokeColor=#6c8ebf;strokeWidth=4;" parent="1" edge="1">
          <mxGeometry width="50" height="50" relative="1" as="geometry">
            <mxPoint x="80" y="660" as="sourcePoint" />
            <mxPoint x="80" y="510" as="targetPoint" />
          </mxGeometry>
        </mxCell>
        <mxCell id="XRD_ZA1efbDo6FkzEbn4-61" value="" style="endArrow=none;dashed=1;html=1;rounded=0;fillColor=#f8cecc;strokeColor=#b85450;strokeWidth=4;" parent="1" edge="1">
          <mxGeometry width="50" height="50" relative="1" as="geometry">
            <mxPoint x="149" y="660" as="sourcePoint" />
            <mxPoint x="149.5" y="510" as="targetPoint" />
          </mxGeometry>
        </mxCell>
        <mxCell id="XRD_ZA1efbDo6FkzEbn4-62" value="G" style="text;html=1;align=center;verticalAlign=middle;whiteSpace=wrap;rounded=0;" parent="1" vertex="1">
          <mxGeometry x="360" y="179" width="50" height="22" as="geometry" />
        </mxCell>
        <mxCell id="XRD_ZA1efbDo6FkzEbn4-63" value="0&lt;span style=&quot;caret-color: rgba(0, 0, 0, 0); color: rgba(0, 0, 0, 0); font-family: monospace; font-size: 0px; text-align: start; white-space: nowrap;&quot;&gt;%3CmxGraphModel%3E%3Croot%3E%3CmxCell%20id%3D%220%22%2F%3E%3CmxCell%20id%3D%221%22%20parent%3D%220%22%2F%3E%3CmxCell%20id%3D%222%22%20value%3D%22G%22%20style%3D%22text%3Bhtml%3D1%3Balign%3Dcenter%3BverticalAlign%3Dmiddle%3BwhiteSpace%3Dwrap%3Brounded%3D0%3B%22%20vertex%3D%221%22%20parent%3D%221%22%3E%3CmxGeometry%20x%3D%22360%22%20y%3D%22179%22%20width%3D%2250%22%20height%3D%2222%22%20as%3D%22geometry%22%2F%3E%3C%2FmxCell%3E%3C%2Froot%3E%3C%2FmxGraphModel%3E&lt;/span&gt;" style="text;html=1;align=center;verticalAlign=middle;whiteSpace=wrap;rounded=0;strokeWidth=2;" parent="1" vertex="1">
          <mxGeometry x="360" y="205" width="50" height="22" as="geometry" />
        </mxCell>
        <mxCell id="XRD_ZA1efbDo6FkzEbn4-64" value="1" style="text;html=1;align=center;verticalAlign=middle;whiteSpace=wrap;rounded=0;" parent="1" vertex="1">
          <mxGeometry x="360" y="229" width="50" height="22" as="geometry" />
        </mxCell>
        <mxCell id="XRD_ZA1efbDo6FkzEbn4-65" value="2&lt;span style=&quot;caret-color: rgba(0, 0, 0, 0); color: rgba(0, 0, 0, 0); font-family: monospace; font-size: 0px; text-align: start; white-space: nowrap;&quot;&gt;%3CmxGraphModel%3E%3Croot%3E%3CmxCell%20id%3D%220%22%2F%3E%3CmxCell%20id%3D%221%22%20parent%3D%220%22%2F%3E%3CmxCell%20id%3D%222%22%20value%3D%220%26lt%3Bspan%20style%3D%26quot%3Bcaret-color%3A%20rgba(0%2C%200%2C%200%2C%200)%3B%20color%3A%20rgba(0%2C%200%2C%200%2C%200)%3B%20font-family%3A%20monospace%3B%20font-size%3A%200px%3B%20text-align%3A%20start%3B%20white-space%3A%20nowrap%3B%26quot%3B%26gt%3B%253CmxGraphModel%253E%253Croot%253E%253CmxCell%2520id%253D%25220%2522%252F%253E%253CmxCell%2520id%253D%25221%2522%2520parent%253D%25220%2522%252F%253E%253CmxCell%2520id%253D%25222%2522%2520value%253D%2522G%2522%2520style%253D%2522text%253Bhtml%253D1%253Balign%253Dcenter%253BverticalAlign%253Dmiddle%253BwhiteSpace%253Dwrap%253Brounded%253D0%253B%2522%2520vertex%253D%25221%2522%2520parent%253D%25221%2522%253E%253CmxGeometry%2520x%253D%2522360%2522%2520y%253D%2522179%2522%2520width%253D%252250%2522%2520height%253D%252222%2522%2520as%253D%2522geometry%2522%252F%253E%253C%252FmxCell%253E%253C%252Froot%253E%253C%252FmxGraphModel%253E%26lt%3B%2Fspan%26gt%3B%22%20style%3D%22text%3Bhtml%3D1%3Balign%3Dcenter%3BverticalAlign%3Dmiddle%3BwhiteSpace%3Dwrap%3Brounded%3D0%3B%22%20vertex%3D%221%22%20parent%3D%221%22%3E%3CmxGeometry%20x%3D%22360%22%20y%3D%22205%22%20width%3D%2250%22%20height%3D%2222%22%20as%3D%22geometry%22%2F%3E%3C%2FmxCell%3E%3C%2Froot%3E%3C%2FmxGraphModel%3E&lt;/span&gt;" style="text;html=1;align=center;verticalAlign=middle;whiteSpace=wrap;rounded=0;" parent="1" vertex="1">
          <mxGeometry x="360" y="256" width="50" height="22" as="geometry" />
        </mxCell>
        <mxCell id="XRD_ZA1efbDo6FkzEbn4-66" value="3" style="text;html=1;align=center;verticalAlign=middle;whiteSpace=wrap;rounded=0;" parent="1" vertex="1">
          <mxGeometry x="360" y="280" width="50" height="22" as="geometry" />
        </mxCell>
        <mxCell id="XRD_ZA1efbDo6FkzEbn4-67" value="4" style="text;html=1;align=center;verticalAlign=middle;whiteSpace=wrap;rounded=0;" parent="1" vertex="1">
          <mxGeometry x="360" y="306" width="50" height="22" as="geometry" />
        </mxCell>
        <mxCell id="XRD_ZA1efbDo6FkzEbn4-68" value="5" style="text;html=1;align=center;verticalAlign=middle;whiteSpace=wrap;rounded=0;" parent="1" vertex="1">
          <mxGeometry x="360" y="330" width="50" height="22" as="geometry" />
        </mxCell>
        <mxCell id="XRD_ZA1efbDo6FkzEbn4-69" value="6" style="text;html=1;align=center;verticalAlign=middle;whiteSpace=wrap;rounded=0;" parent="1" vertex="1">
          <mxGeometry x="360" y="358" width="50" height="22" as="geometry" />
        </mxCell>
        <mxCell id="XRD_ZA1efbDo6FkzEbn4-70" value="7" style="text;html=1;align=center;verticalAlign=middle;whiteSpace=wrap;rounded=0;" parent="1" vertex="1">
          <mxGeometry x="360" y="380" width="50" height="22" as="geometry" />
        </mxCell>
        <mxCell id="XRD_ZA1efbDo6FkzEbn4-71" value="8" style="text;html=1;align=center;verticalAlign=middle;whiteSpace=wrap;rounded=0;" parent="1" vertex="1">
          <mxGeometry x="360" y="406" width="50" height="22" as="geometry" />
        </mxCell>
        <mxCell id="XRD_ZA1efbDo6FkzEbn4-72" value="9&lt;span style=&quot;caret-color: rgba(0, 0, 0, 0); color: rgba(0, 0, 0, 0); font-family: monospace; font-size: 0px; text-align: start; white-space: nowrap;&quot;&gt;%3CmxGraphModel%3E%3Croot%3E%3CmxCell%20id%3D%220%22%2F%3E%3CmxCell%20id%3D%221%22%20parent%3D%220%22%2F%3E%3CmxCell%20id%3D%222%22%20value%3D%22G%22%20style%3D%22text%3Bhtml%3D1%3Balign%3Dcenter%3BverticalAlign%3Dmiddle%3BwhiteSpace%3Dwrap%3Brounded%3D0%3B%22%20vertex%3D%221%22%20parent%3D%221%22%3E%3CmxGeometry%20x%3D%22360%22%20y%3D%22179%22%20width%3D%2250%22%20height%3D%2222%22%20as%3D%22geometry%22%2F%3E%3C%2FmxCell%3E%3C%2Froot%3E%3C%2FmxGraphModel%3E&lt;/span&gt;" style="text;html=1;align=center;verticalAlign=middle;whiteSpace=wrap;rounded=0;" parent="1" vertex="1">
          <mxGeometry x="360" y="430" width="50" height="22" as="geometry" />
        </mxCell>
        <mxCell id="XRD_ZA1efbDo6FkzEbn4-73" value="10" style="text;html=1;align=center;verticalAlign=middle;whiteSpace=wrap;rounded=0;" parent="1" vertex="1">
          <mxGeometry x="360" y="457" width="50" height="22" as="geometry" />
        </mxCell>
        <mxCell id="XRD_ZA1efbDo6FkzEbn4-74" value="11" style="text;html=1;align=center;verticalAlign=middle;whiteSpace=wrap;rounded=0;" parent="1" vertex="1">
          <mxGeometry x="360" y="480" width="50" height="22" as="geometry" />
        </mxCell>
        <mxCell id="XRD_ZA1efbDo6FkzEbn4-86" value="" style="endArrow=none;html=1;rounded=0;entryX=0;entryY=1;entryDx=0;entryDy=0;exitX=0.996;exitY=0.185;exitDx=0;exitDy=0;exitPerimeter=0;" parent="1" source="XRD_ZA1efbDo6FkzEbn4-1" target="XRD_ZA1efbDo6FkzEbn4-40" edge="1">
          <mxGeometry width="50" height="50" relative="1" as="geometry">
            <mxPoint x="540" y="580" as="sourcePoint" />
            <mxPoint x="530" y="370" as="targetPoint" />
          </mxGeometry>
        </mxCell>
        <mxCell id="XRD_ZA1efbDo6FkzEbn4-87" value="" style="endArrow=none;html=1;rounded=0;entryX=0;entryY=1;entryDx=0;entryDy=0;exitX=0.996;exitY=0.185;exitDx=0;exitDy=0;exitPerimeter=0;" parent="1" edge="1">
          <mxGeometry width="50" height="50" relative="1" as="geometry">
            <mxPoint x="410" y="506" as="sourcePoint" />
            <mxPoint x="410" y="479" as="targetPoint" />
          </mxGeometry>
        </mxCell>
        <mxCell id="XRD_ZA1efbDo6FkzEbn4-88" value="5V" style="text;html=1;align=center;verticalAlign=middle;whiteSpace=wrap;rounded=0;" parent="1" vertex="1">
          <mxGeometry x="584" y="179" width="50" height="22" as="geometry" />
        </mxCell>
        <mxCell id="XRD_ZA1efbDo6FkzEbn4-89" value="3V" style="text;html=1;align=center;verticalAlign=middle;whiteSpace=wrap;rounded=0;strokeWidth=2;" parent="1" vertex="1">
          <mxGeometry x="584" y="228" width="50" height="22" as="geometry" />
        </mxCell>
        <mxCell id="XRD_ZA1efbDo6FkzEbn4-90" value="23" style="text;html=1;align=center;verticalAlign=middle;whiteSpace=wrap;rounded=0;" parent="1" vertex="1">
          <mxGeometry x="584" y="256" width="50" height="22" as="geometry" />
        </mxCell>
        <mxCell id="XRD_ZA1efbDo6FkzEbn4-91" value="22" style="text;html=1;align=center;verticalAlign=middle;whiteSpace=wrap;rounded=0;" parent="1" vertex="1">
          <mxGeometry x="584" y="280" width="50" height="22" as="geometry" />
        </mxCell>
        <mxCell id="XRD_ZA1efbDo6FkzEbn4-92" value="21" style="text;html=1;align=center;verticalAlign=middle;whiteSpace=wrap;rounded=0;" parent="1" vertex="1">
          <mxGeometry x="584" y="306" width="50" height="22" as="geometry" />
        </mxCell>
        <mxCell id="XRD_ZA1efbDo6FkzEbn4-93" value="20" style="text;html=1;align=center;verticalAlign=middle;whiteSpace=wrap;rounded=0;" parent="1" vertex="1">
          <mxGeometry x="584" y="330" width="50" height="22" as="geometry" />
        </mxCell>
        <mxCell id="XRD_ZA1efbDo6FkzEbn4-94" value="19" style="text;html=1;align=center;verticalAlign=middle;whiteSpace=wrap;rounded=0;" parent="1" vertex="1">
          <mxGeometry x="584" y="356" width="50" height="22" as="geometry" />
        </mxCell>
        <mxCell id="XRD_ZA1efbDo6FkzEbn4-95" value="18" style="text;html=1;align=center;verticalAlign=middle;whiteSpace=wrap;rounded=0;" parent="1" vertex="1">
          <mxGeometry x="584" y="380" width="50" height="22" as="geometry" />
        </mxCell>
        <mxCell id="XRD_ZA1efbDo6FkzEbn4-96" value="17" style="text;html=1;align=center;verticalAlign=middle;whiteSpace=wrap;rounded=0;" parent="1" vertex="1">
          <mxGeometry x="584" y="405" width="50" height="22" as="geometry" />
        </mxCell>
        <mxCell id="XRD_ZA1efbDo6FkzEbn4-97" value="16" style="text;html=1;align=center;verticalAlign=middle;whiteSpace=wrap;rounded=0;" parent="1" vertex="1">
          <mxGeometry x="584" y="430" width="50" height="22" as="geometry" />
        </mxCell>
        <mxCell id="XRD_ZA1efbDo6FkzEbn4-98" value="15" style="text;html=1;align=center;verticalAlign=middle;whiteSpace=wrap;rounded=0;" parent="1" vertex="1">
          <mxGeometry x="584" y="452" width="50" height="22" as="geometry" />
        </mxCell>
        <mxCell id="XRD_ZA1efbDo6FkzEbn4-99" value="14" style="text;html=1;align=center;verticalAlign=middle;whiteSpace=wrap;rounded=0;" parent="1" vertex="1">
          <mxGeometry x="584" y="479" width="50" height="22" as="geometry" />
        </mxCell>
        <mxCell id="XRD_ZA1efbDo6FkzEbn4-100" value="" style="endArrow=none;html=1;rounded=0;fillColor=#dae8fc;strokeColor=#6c8ebf;strokeWidth=5;jumpStyle=arc;" parent="1" edge="1">
          <mxGeometry width="50" height="50" relative="1" as="geometry">
            <mxPoint x="130" y="280" as="sourcePoint" />
            <mxPoint x="253" y="280" as="targetPoint" />
          </mxGeometry>
        </mxCell>
        <mxCell id="XRD_ZA1efbDo6FkzEbn4-101" value="" style="endArrow=none;html=1;rounded=0;exitX=0.7;exitY=0.985;exitDx=0;exitDy=0;exitPerimeter=0;fillColor=#dae8fc;strokeColor=#6c8ebf;strokeWidth=5;" parent="1" edge="1">
          <mxGeometry width="50" height="50" relative="1" as="geometry">
            <mxPoint x="251" y="188" as="sourcePoint" />
            <mxPoint x="250" y="280" as="targetPoint" />
          </mxGeometry>
        </mxCell>
        <mxCell id="XRD_ZA1efbDo6FkzEbn4-102" value="" style="endArrow=none;html=1;rounded=0;fillColor=#fff2cc;strokeColor=#d6b656;strokeWidth=5;entryX=0.033;entryY=0.606;entryDx=0;entryDy=0;entryPerimeter=0;jumpStyle=arc;" parent="1" edge="1">
          <mxGeometry width="50" height="50" relative="1" as="geometry">
            <mxPoint x="70" y="320" as="sourcePoint" />
            <mxPoint x="360.65" y="319.332" as="targetPoint" />
          </mxGeometry>
        </mxCell>
        <mxCell id="XRD_ZA1efbDo6FkzEbn4-104" value="" style="endArrow=none;html=1;rounded=0;fillColor=#f5f5f5;strokeColor=#CCCCCC;strokeWidth=5;" parent="1" edge="1">
          <mxGeometry width="50" height="50" relative="1" as="geometry">
            <mxPoint x="670" y="190" as="sourcePoint" />
            <mxPoint x="670" y="600" as="targetPoint" />
          </mxGeometry>
        </mxCell>
        <mxCell id="XRD_ZA1efbDo6FkzEbn4-105" value="" style="endArrow=none;html=1;rounded=0;strokeWidth=5;strokeColor=#CCCCCC;" parent="1" edge="1">
          <mxGeometry width="50" height="50" relative="1" as="geometry">
            <mxPoint x="634" y="192.82" as="sourcePoint" />
            <mxPoint x="670" y="193" as="targetPoint" />
          </mxGeometry>
        </mxCell>
        <mxCell id="XRD_ZA1efbDo6FkzEbn4-106" value="" style="endArrow=none;html=1;rounded=0;fillColor=#f5f5f5;strokeColor=#666666;strokeWidth=5;jumpStyle=arc;" parent="1" edge="1">
          <mxGeometry width="50" height="50" relative="1" as="geometry">
            <mxPoint x="10" y="577" as="sourcePoint" />
            <mxPoint x="690" y="577" as="targetPoint" />
          </mxGeometry>
        </mxCell>
        <mxCell id="XRD_ZA1efbDo6FkzEbn4-107" value="" style="endArrow=none;html=1;rounded=0;fillColor=#f5f5f5;strokeColor=#666666;strokeWidth=5;" parent="1" edge="1">
          <mxGeometry width="50" height="50" relative="1" as="geometry">
            <mxPoint x="690" y="265" as="sourcePoint" />
            <mxPoint x="691" y="580" as="targetPoint" />
          </mxGeometry>
        </mxCell>
        <mxCell id="XRD_ZA1efbDo6FkzEbn4-108" value="" style="endArrow=none;html=1;rounded=0;exitX=0.7;exitY=0.985;exitDx=0;exitDy=0;exitPerimeter=0;fillColor=#f5f5f5;strokeColor=#666666;strokeWidth=5;jumpStyle=arc;" parent="1" edge="1">
          <mxGeometry width="50" height="50" relative="1" as="geometry">
            <mxPoint x="634" y="266.78999999999996" as="sourcePoint" />
            <mxPoint x="690" y="267" as="targetPoint" />
          </mxGeometry>
        </mxCell>
        <mxCell id="XRD_ZA1efbDo6FkzEbn4-109" value="" style="endArrow=none;html=1;rounded=0;fillColor=#f8cecc;strokeColor=#b85450;strokeWidth=5;jumpStyle=arc;" parent="1" edge="1">
          <mxGeometry width="50" height="50" relative="1" as="geometry">
            <mxPoint x="30" y="550" as="sourcePoint" />
            <mxPoint x="650" y="550" as="targetPoint" />
          </mxGeometry>
        </mxCell>
        <mxCell id="XRD_ZA1efbDo6FkzEbn4-110" value="" style="endArrow=none;html=1;rounded=0;fillColor=#f8cecc;strokeColor=#b85450;strokeWidth=5;" parent="1" edge="1">
          <mxGeometry width="50" height="50" relative="1" as="geometry">
            <mxPoint x="650" y="290" as="sourcePoint" />
            <mxPoint x="650" y="552" as="targetPoint" />
          </mxGeometry>
        </mxCell>
        <mxCell id="XRD_ZA1efbDo6FkzEbn4-113" value="" style="rounded=0;whiteSpace=wrap;html=1;rotation=90;" parent="1" vertex="1">
          <mxGeometry x="437.51" y="20" width="120" height="90" as="geometry" />
        </mxCell>
        <mxCell id="XRD_ZA1efbDo6FkzEbn4-114" value="" style="endArrow=none;html=1;rounded=0;exitX=0.7;exitY=0.985;exitDx=0;exitDy=0;exitPerimeter=0;fillColor=#f8cecc;strokeColor=#b85450;strokeWidth=5;" parent="1" edge="1">
          <mxGeometry width="50" height="50" relative="1" as="geometry">
            <mxPoint x="635" y="291.89" as="sourcePoint" />
            <mxPoint x="651" y="292" as="targetPoint" />
          </mxGeometry>
        </mxCell>
        <mxCell id="XRD_ZA1efbDo6FkzEbn4-115" value="" style="endArrow=none;html=1;rounded=0;strokeWidth=5;fillColor=#d5e8d4;strokeColor=light-dark(#38571A,#446E2C);" parent="1" edge="1">
          <mxGeometry width="50" height="50" relative="1" as="geometry">
            <mxPoint x="322" y="510" as="sourcePoint" />
            <mxPoint x="322" y="200" as="targetPoint" />
          </mxGeometry>
        </mxCell>
        <mxCell id="XRD_ZA1efbDo6FkzEbn4-116" value="" style="endArrow=none;html=1;rounded=0;strokeWidth=5;fillColor=#d5e8d4;strokeColor=#006600;jumpStyle=arc;" parent="1" edge="1">
          <mxGeometry width="50" height="50" relative="1" as="geometry">
            <mxPoint x="320" y="510" as="sourcePoint" />
            <mxPoint x="80" y="510" as="targetPoint" />
          </mxGeometry>
        </mxCell>
        <mxCell id="XRD_ZA1efbDo6FkzEbn4-117" value="" style="endArrow=none;html=1;rounded=0;strokeWidth=5;exitX=0;exitY=0.5;exitDx=0;exitDy=0;fillColor=#d5e8d4;strokeColor=#006600;" parent="1" edge="1">
          <mxGeometry width="50" height="50" relative="1" as="geometry">
            <mxPoint x="360" y="198" as="sourcePoint" />
            <mxPoint x="320" y="198" as="targetPoint" />
          </mxGeometry>
        </mxCell>
        <mxCell id="XRD_ZA1efbDo6FkzEbn4-118" value="G" style="text;html=1;align=center;verticalAlign=middle;whiteSpace=wrap;rounded=0;" parent="1" vertex="1">
          <mxGeometry x="584" y="204.38" width="50" height="22" as="geometry" />
        </mxCell>
        <mxCell id="XRD_ZA1efbDo6FkzEbn4-119" value="Power Supply" style="text;html=1;align=center;verticalAlign=middle;whiteSpace=wrap;rounded=0;" parent="1" vertex="1">
          <mxGeometry x="50" y="695" width="120" height="30" as="geometry" />
        </mxCell>
        <mxCell id="XRD_ZA1efbDo6FkzEbn4-120" value="&lt;font style=&quot;font-size: 14px;&quot;&gt;Teensy 4.0&lt;/font&gt;" style="text;html=1;align=center;verticalAlign=middle;whiteSpace=wrap;rounded=0;strokeWidth=2;" parent="1" vertex="1">
          <mxGeometry x="437.51" y="326" width="120" height="30" as="geometry" />
        </mxCell>
        <mxCell id="XRD_ZA1efbDo6FkzEbn4-121" value="Nidec 24h&amp;nbsp;&lt;div&gt;Motor&lt;/div&gt;" style="text;html=1;align=center;verticalAlign=middle;whiteSpace=wrap;rounded=0;movable=0;resizable=0;rotatable=0;deletable=0;editable=0;locked=1;connectable=0;" parent="1" vertex="1">
          <mxGeometry x="24.999999999999996" y="91.88" width="120" height="30" as="geometry" />
        </mxCell>
        <mxCell id="XRD_ZA1efbDo6FkzEbn4-122" value="&lt;font style=&quot;font-size: 10px;&quot;&gt;wire_1&lt;/font&gt;" style="text;html=1;align=center;verticalAlign=middle;whiteSpace=wrap;rounded=0;rotation=-90;" parent="1" vertex="1">
          <mxGeometry x="-47" y="163.5" width="120" height="30" as="geometry" />
        </mxCell>
        <mxCell id="XRD_ZA1efbDo6FkzEbn4-126" value="&lt;font style=&quot;font-size: 10px;&quot;&gt;wire_2&lt;/font&gt;" style="text;html=1;align=center;verticalAlign=middle;whiteSpace=wrap;rounded=0;rotation=-90;" parent="1" vertex="1">
          <mxGeometry x="-31" y="163.5" width="120" height="30" as="geometry" />
        </mxCell>
        <mxCell id="XRD_ZA1efbDo6FkzEbn4-127" value="&lt;font style=&quot;font-size: 10px;&quot;&gt;wire_3&lt;/font&gt;" style="text;html=1;align=center;verticalAlign=middle;whiteSpace=wrap;rounded=0;rotation=-90;" parent="1" vertex="1">
          <mxGeometry x="-12" y="163.5" width="120" height="30" as="geometry" />
        </mxCell>
        <mxCell id="XRD_ZA1efbDo6FkzEbn4-128" value="&lt;font style=&quot;font-size: 10px;&quot;&gt;wire_4&lt;/font&gt;" style="text;html=1;align=center;verticalAlign=middle;whiteSpace=wrap;rounded=0;rotation=-90;" parent="1" vertex="1">
          <mxGeometry x="7" y="163.5" width="120" height="30" as="geometry" />
        </mxCell>
        <mxCell id="XRD_ZA1efbDo6FkzEbn4-129" value="&lt;font style=&quot;font-size: 10px;&quot;&gt;wire_5&lt;/font&gt;" style="text;html=1;align=center;verticalAlign=middle;whiteSpace=wrap;rounded=0;rotation=-90;" parent="1" vertex="1">
          <mxGeometry x="30" y="163.5" width="120" height="30" as="geometry" />
        </mxCell>
        <mxCell id="XRD_ZA1efbDo6FkzEbn4-130" value="&lt;font style=&quot;font-size: 10px;&quot;&gt;wire_6&lt;/font&gt;" style="text;html=1;align=center;verticalAlign=middle;whiteSpace=wrap;rounded=0;rotation=-90;" parent="1" vertex="1">
          <mxGeometry x="49" y="163.5" width="120" height="30" as="geometry" />
        </mxCell>
        <mxCell id="XRD_ZA1efbDo6FkzEbn4-131" value="&lt;font style=&quot;font-size: 10px;&quot;&gt;wire_7&lt;/font&gt;" style="text;html=1;align=center;verticalAlign=middle;whiteSpace=wrap;rounded=0;rotation=-90;" parent="1" vertex="1">
          <mxGeometry x="70" y="163.5" width="120" height="30" as="geometry" />
        </mxCell>
        <mxCell id="XRD_ZA1efbDo6FkzEbn4-132" value="&lt;font style=&quot;font-size: 10px;&quot;&gt;wire_8&lt;/font&gt;" style="text;html=1;align=center;verticalAlign=middle;whiteSpace=wrap;rounded=0;rotation=-90;movable=1;resizable=1;rotatable=1;deletable=1;editable=1;locked=0;connectable=1;" parent="1" vertex="1">
          <mxGeometry x="87" y="163.5" width="120" height="30" as="geometry" />
        </mxCell>
        <mxCell id="XRD_ZA1efbDo6FkzEbn4-133" value="&lt;font style=&quot;font-size: 10px;&quot;&gt;wire_0&lt;/font&gt;" style="text;html=1;align=center;verticalAlign=middle;whiteSpace=wrap;rounded=0;rotation=0;" parent="1" vertex="1">
          <mxGeometry x="126" y="484" width="120" height="30" as="geometry" />
        </mxCell>
        <mxCell id="XRD_ZA1efbDo6FkzEbn4-134" value="Accelerometer" style="text;html=1;align=center;verticalAlign=middle;whiteSpace=wrap;rounded=0;" parent="1" vertex="1">
          <mxGeometry x="437.51" y="20" width="120" height="30" as="geometry" />
        </mxCell>
        <mxCell id="XRD_ZA1efbDo6FkzEbn4-135" value="" style="rounded=0;whiteSpace=wrap;html=1;" parent="1" vertex="1">
          <mxGeometry x="461.27" y="100" width="72.49" height="30" as="geometry" />
        </mxCell>
        <mxCell id="XRD_ZA1efbDo6FkzEbn4-136" value="" style="rounded=0;whiteSpace=wrap;html=1;" parent="1" vertex="1">
          <mxGeometry x="461.27" y="100" width="36.24" height="30" as="geometry" />
        </mxCell>
        <mxCell id="XRD_ZA1efbDo6FkzEbn4-137" value="" style="rounded=0;whiteSpace=wrap;html=1;" parent="1" vertex="1">
          <mxGeometry x="461.27" y="100" width="16.24" height="30" as="geometry" />
        </mxCell>
        <mxCell id="XRD_ZA1efbDo6FkzEbn4-138" value="" style="rounded=0;whiteSpace=wrap;html=1;" parent="1" vertex="1">
          <mxGeometry x="517.51" y="100" width="16.25" height="30" as="geometry" />
        </mxCell>
        <mxCell id="XRD_ZA1efbDo6FkzEbn4-139" value="" style="endArrow=none;html=1;rounded=0;entryX=0.5;entryY=1;entryDx=0;entryDy=0;strokeWidth=5;fillColor=#fff2cc;strokeColor=#FFFF33;" parent="1" edge="1">
          <mxGeometry width="50" height="50" relative="1" as="geometry">
            <mxPoint x="471.5" y="160" as="sourcePoint" />
            <mxPoint x="471.8899999999999" y="130" as="targetPoint" />
          </mxGeometry>
        </mxCell>
        <mxCell id="XRD_ZA1efbDo6FkzEbn4-140" value="" style="endArrow=none;html=1;rounded=0;entryX=0.5;entryY=1;entryDx=0;entryDy=0;strokeWidth=5;fillColor=#dae8fc;strokeColor=#000099;" parent="1" edge="1">
          <mxGeometry width="50" height="50" relative="1" as="geometry">
            <mxPoint x="490" y="170" as="sourcePoint" />
            <mxPoint x="490" y="130" as="targetPoint" />
          </mxGeometry>
        </mxCell>
        <mxCell id="XRD_ZA1efbDo6FkzEbn4-141" value="" style="endArrow=none;html=1;rounded=0;entryX=0.5;entryY=1;entryDx=0;entryDy=0;strokeWidth=5;fillColor=#f8cecc;strokeColor=light-dark(#831100, #d7817e);" parent="1" edge="1">
          <mxGeometry width="50" height="50" relative="1" as="geometry">
            <mxPoint x="510" y="150" as="sourcePoint" />
            <mxPoint x="510" y="130" as="targetPoint" />
          </mxGeometry>
        </mxCell>
        <mxCell id="XRD_ZA1efbDo6FkzEbn4-142" value="" style="endArrow=none;html=1;rounded=0;entryX=0.5;entryY=1;entryDx=0;entryDy=0;strokeWidth=5;fillColor=#f5f5f5;strokeColor=#1A1A1A;" parent="1" edge="1">
          <mxGeometry width="50" height="50" relative="1" as="geometry">
            <mxPoint x="525" y="140" as="sourcePoint" />
            <mxPoint x="525.29" y="130" as="targetPoint" />
          </mxGeometry>
        </mxCell>
        <mxCell id="XRD_ZA1efbDo6FkzEbn4-143" value="" style="endArrow=none;html=1;rounded=0;strokeWidth=5;fillColor=#fff2cc;strokeColor=#FFFF33;" parent="1" edge="1">
          <mxGeometry width="50" height="50" relative="1" as="geometry">
            <mxPoint x="470" y="160" as="sourcePoint" />
            <mxPoint x="760" y="160" as="targetPoint" />
          </mxGeometry>
        </mxCell>
        <mxCell id="XRD_ZA1efbDo6FkzEbn4-144" value="" style="endArrow=none;html=1;rounded=0;strokeWidth=5;fillColor=#fff2cc;strokeColor=#FFFF33;" parent="1" edge="1">
          <mxGeometry width="50" height="50" relative="1" as="geometry">
            <mxPoint x="760" y="160" as="sourcePoint" />
            <mxPoint x="760" y="460" as="targetPoint" />
          </mxGeometry>
        </mxCell>
        <mxCell id="XRD_ZA1efbDo6FkzEbn4-145" value="" style="endArrow=none;html=1;rounded=0;strokeWidth=5;fillColor=#fff2cc;strokeColor=#FFFF33;exitX=0.868;exitY=0.004;exitDx=0;exitDy=0;exitPerimeter=0;" parent="1" source="XRD_ZA1efbDo6FkzEbn4-1" edge="1">
          <mxGeometry width="50" height="50" relative="1" as="geometry">
            <mxPoint x="637" y="463" as="sourcePoint" />
            <mxPoint x="763" y="463" as="targetPoint" />
          </mxGeometry>
        </mxCell>
        <mxCell id="XRD_ZA1efbDo6FkzEbn4-146" value="" style="endArrow=none;html=1;rounded=0;entryX=0.5;entryY=1;entryDx=0;entryDy=0;strokeWidth=5;fillColor=#dae8fc;strokeColor=#000099;" parent="1" edge="1">
          <mxGeometry width="50" height="50" relative="1" as="geometry">
            <mxPoint x="730" y="168" as="sourcePoint" />
            <mxPoint x="490" y="168" as="targetPoint" />
          </mxGeometry>
        </mxCell>
        <mxCell id="XRD_ZA1efbDo6FkzEbn4-147" value="" style="endArrow=none;html=1;rounded=0;entryX=0.5;entryY=1;entryDx=0;entryDy=0;strokeWidth=5;fillColor=#dae8fc;strokeColor=#000099;" parent="1" edge="1">
          <mxGeometry width="50" height="50" relative="1" as="geometry">
            <mxPoint x="730" y="441" as="sourcePoint" />
            <mxPoint x="634" y="440.71" as="targetPoint" />
          </mxGeometry>
        </mxCell>
        <mxCell id="XRD_ZA1efbDo6FkzEbn4-148" value="" style="endArrow=none;html=1;rounded=0;strokeWidth=5;fillColor=#dae8fc;strokeColor=#000099;" parent="1" edge="1">
          <mxGeometry width="50" height="50" relative="1" as="geometry">
            <mxPoint x="730" y="445" as="sourcePoint" />
            <mxPoint x="730" y="165" as="targetPoint" />
          </mxGeometry>
        </mxCell>
        <mxCell id="XRD_ZA1efbDo6FkzEbn4-150" value="" style="endArrow=none;html=1;rounded=0;strokeWidth=5;fillColor=#f8cecc;strokeColor=light-dark(#831100, #d7817e);" parent="1" edge="1">
          <mxGeometry width="50" height="50" relative="1" as="geometry">
            <mxPoint x="710" y="150" as="sourcePoint" />
            <mxPoint x="510" y="150" as="targetPoint" />
          </mxGeometry>
        </mxCell>
        <mxCell id="XRD_ZA1efbDo6FkzEbn4-151" value="" style="endArrow=none;html=1;rounded=0;strokeWidth=5;fillColor=#f8cecc;strokeColor=light-dark(#831100, #d7817e);jumpStyle=arc;" parent="1" edge="1">
          <mxGeometry width="50" height="50" relative="1" as="geometry">
            <mxPoint x="710" y="187" as="sourcePoint" />
            <mxPoint x="710" y="147" as="targetPoint" />
          </mxGeometry>
        </mxCell>
        <mxCell id="XRD_ZA1efbDo6FkzEbn4-152" value="" style="endArrow=none;html=1;rounded=0;strokeWidth=5;fillColor=#f8cecc;strokeColor=light-dark(#831100, #d7817e);entryX=1;entryY=0.25;entryDx=0;entryDy=0;" parent="1" target="XRD_ZA1efbDo6FkzEbn4-88" edge="1">
          <mxGeometry width="50" height="50" relative="1" as="geometry">
            <mxPoint x="710" y="185" as="sourcePoint" />
            <mxPoint x="720" y="220" as="targetPoint" />
          </mxGeometry>
        </mxCell>
        <mxCell id="XRD_ZA1efbDo6FkzEbn4-153" value="" style="endArrow=none;html=1;rounded=0;strokeWidth=5;fillColor=#f5f5f5;strokeColor=#1A1A1A;" parent="1" edge="1">
          <mxGeometry width="50" height="50" relative="1" as="geometry">
            <mxPoint x="523" y="140" as="sourcePoint" />
            <mxPoint x="650" y="140" as="targetPoint" />
          </mxGeometry>
        </mxCell>
        <mxCell id="XRD_ZA1efbDo6FkzEbn4-154" value="" style="endArrow=none;html=1;rounded=0;strokeWidth=5;fillColor=#f5f5f5;strokeColor=#1A1A1A;" parent="1" edge="1">
          <mxGeometry width="50" height="50" relative="1" as="geometry">
            <mxPoint x="634" y="215.8" as="sourcePoint" />
            <mxPoint x="650" y="216" as="targetPoint" />
          </mxGeometry>
        </mxCell>
        <mxCell id="XRD_ZA1efbDo6FkzEbn4-155" value="" style="endArrow=none;html=1;rounded=0;strokeWidth=5;fillColor=#f5f5f5;strokeColor=#1A1A1A;jumpStyle=arc;" parent="1" edge="1">
          <mxGeometry width="50" height="50" relative="1" as="geometry">
            <mxPoint x="650" y="138" as="sourcePoint" />
            <mxPoint x="650" y="218" as="targetPoint" />
          </mxGeometry>
        </mxCell>
        <mxCell id="XRD_ZA1efbDo6FkzEbn4-157" value="&lt;font style=&quot;font-size: 14px;&quot;&gt;Breadboard&lt;/font&gt;" style="text;html=1;align=center;verticalAlign=middle;whiteSpace=wrap;rounded=0;" parent="1" vertex="1">
          <mxGeometry x="430" y="599" width="120" height="30" as="geometry" />
        </mxCell>
        <mxCell id="XRD_ZA1efbDo6FkzEbn4-158" value="&lt;font size=&quot;1&quot;&gt;VCC&lt;/font&gt;" style="text;html=1;align=center;verticalAlign=middle;whiteSpace=wrap;rounded=0;rotation=-90;" parent="1" vertex="1">
          <mxGeometry x="447" y="100" width="120" height="30" as="geometry" />
        </mxCell>
        <mxCell id="XRD_ZA1efbDo6FkzEbn4-161" value="&lt;font size=&quot;1&quot;&gt;GND&lt;/font&gt;" style="text;html=1;align=center;verticalAlign=middle;whiteSpace=wrap;rounded=0;rotation=-90;" parent="1" vertex="1">
          <mxGeometry x="465" y="100" width="120" height="30" as="geometry" />
        </mxCell>
        <mxCell id="XRD_ZA1efbDo6FkzEbn4-162" value="&lt;font size=&quot;1&quot;&gt;SCL&lt;/font&gt;" style="text;html=1;align=center;verticalAlign=middle;whiteSpace=wrap;rounded=0;rotation=-90;" parent="1" vertex="1">
          <mxGeometry x="427" y="100" width="120" height="30" as="geometry" />
        </mxCell>
        <mxCell id="XRD_ZA1efbDo6FkzEbn4-163" value="&lt;font size=&quot;1&quot;&gt;SDA&lt;/font&gt;" style="text;html=1;align=center;verticalAlign=middle;whiteSpace=wrap;rounded=0;rotation=-90;" parent="1" vertex="1">
          <mxGeometry x="409.39" y="100" width="120" height="30" as="geometry" />
        </mxCell>
        <mxCell id="XRD_ZA1efbDo6FkzEbn4-165" value="&lt;font style=&quot;font-size: 10px;&quot;&gt;wire_9&lt;/font&gt;" style="text;html=1;align=center;verticalAlign=middle;whiteSpace=wrap;rounded=0;rotation=-90;" parent="1" vertex="1">
          <mxGeometry x="407.51" y="67" width="120" height="30" as="geometry" />
        </mxCell>
        <mxCell id="XRD_ZA1efbDo6FkzEbn4-166" value="&lt;font style=&quot;font-size: 10px;&quot;&gt;wire_10&lt;/font&gt;" style="text;html=1;align=center;verticalAlign=middle;whiteSpace=wrap;rounded=0;rotation=-90;" parent="1" vertex="1">
          <mxGeometry x="426" y="64" width="120" height="30" as="geometry" />
        </mxCell>
        <mxCell id="XRD_ZA1efbDo6FkzEbn4-167" value="&lt;font style=&quot;font-size: 10px;&quot;&gt;wire_11&lt;/font&gt;" style="text;html=1;align=center;verticalAlign=middle;whiteSpace=wrap;rounded=0;rotation=-90;" parent="1" vertex="1">
          <mxGeometry x="446" y="64" width="120" height="30" as="geometry" />
        </mxCell>
        <mxCell id="XRD_ZA1efbDo6FkzEbn4-168" value="&lt;font style=&quot;font-size: 10px;&quot;&gt;wire_12&lt;/font&gt;" style="text;html=1;align=center;verticalAlign=middle;whiteSpace=wrap;rounded=0;rotation=-90;" parent="1" vertex="1">
          <mxGeometry x="463.27" y="64" width="120" height="30" as="geometry" />
        </mxCell>
      </root>
    </mxGraphModel>
  </diagram>
</mxfile>
